<svg fill="none" viewBox="244 100 658 501" xmlns="http://www.w3.org/2000/svg"><path d="m244 100h668v501h-668z" fill="none"/><path d="m715.791 425.148c110.497 1.844 150.303 116.014 158.662 29.4 8.079-83.714-94.181-275.938-177.72-285.654-73.815-8.584-53.258 54.844-136.849 84.785-83.591 29.942-140.482-65.567-196.248-12.759-44.754 42.38 10.229 75.065-46.321 198.918-26.948 59.021 86.645 130.286 175.807 113.889 127.671-23.48 112.171-130.423 222.669-128.579z" fill="#1c1c1c"/><path clip-rule="evenodd" d="m507.804 153.587 2.892-2.696.113.022 111.722 18.631 36.616 74.847-53.838 58.059-111.8-19.434-2.444-4.24 53.634-51.766-1.246-2.8 111.115 18.53-34.963-70.509z" fill="#ed64a6" fill-rule="evenodd"/><path clip-rule="evenodd" d="m537.999 539.975c33.532-15.267 53.413-37.876 71.993-59.005 26.252-29.854 49.907-56.754 105.798-55.821 52.942.883 89.656 27.552 114.458 45.568 26.965 19.587 39.851 28.947 44.205-16.169 8.079-83.713-94.181-275.938-177.72-285.653-39.552-4.6-52.009 11.475-67.911 31.996-6.888 8.889-14.422 18.611-25.084 27.848 77.834 7.207 155.524 36.072 138.565 100.833-14.709 56.171-55.013 71.773-91.655 85.958-4.562 1.765-9.067 3.509-13.459 5.307-37.999 15.552-74.935 30.67-88.443 85.77-3.04 12.4-6.675 23.48-10.747 33.368z" fill="#000" fill-opacity=".21" fill-rule="evenodd"/><path d="m495.381 278.028 48.852-52.116 106.283 17.724-48.851 52.116z" fill="#000" fill-opacity=".22"/><path d="m495.381 278.028 48.852-52.116 106.283 17.724-48.851 52.116z" fill="#000" fill-opacity=".22"/><path clip-rule="evenodd" d="m459.91 359.716c19.873 2.233 44.624-2.995 63.342-32.63.793-1.255 1.823-3.028 3.047-5.133 3.323-5.719 8.068-13.884 13.323-20.743 7.081-9.242 17.972-20.242 32.617-20.519l.361 19.041c-5.129.097-11.15 4.304-17.86 13.062-4.485 5.853-7.97 11.866-11.107 17.279-1.481 2.554-2.884 4.976-4.279 7.183-23.275 36.849-55.76 44.286-81.571 41.386z" fill="#ffbd5a" fill-rule="evenodd"/><path d="m507.769 153.581 34.964 70.509 111.836 18.65-34.964-70.508z" fill="#cfd4e8"/><path d="m514.903 157.913 31.565 63.655 100.967 16.838-31.566-63.656z" fill="#e8ecfa"/><g clip-rule="evenodd" fill-rule="evenodd"><g fill="#000" fill-opacity=".7"><path d="m541.831 241.223-3.094-.521 2.963-2.709 3.094.521zm11.405 2.124-6.189-1.042 3.935-2.749 6.189 1.042zm12.016 2.098-6.189-1.042 4.296-2.763 6.189 1.042zm12.377 2.084-6.189-1.042 4.297-2.763 6.188 1.042zm12.979 2.059-6.189-1.041 3.695-2.739 6.188 1.042zm12.618 2.075-6.189-1.042 3.454-2.729 6.188 1.042zm12.016 2.098-6.189-1.042 3.815-2.743 6.188 1.042zm10.15 1.909-3.094-.521 2.947-3.089 3.094.521c4.694.79.559 3.68-2.947 3.089z"/><path d="m534.054 248.733-3.095-.521 2.963-2.709 3.094.521zm11.405 2.123-6.189-1.042 3.935-2.748 6.189 1.042zm12.016 2.099-6.189-1.042 4.296-2.763 6.189 1.042zm12.377 2.084-6.189-1.042 4.296-2.763 6.189 1.042zm12.979 2.059-6.189-1.042 3.694-2.738 6.189 1.042zm12.617 2.074-6.188-1.042 3.453-2.728 6.189 1.041zm12.016 2.099-6.188-1.042 3.814-2.744 6.189 1.042zm10.151 1.909-3.095-.521 2.948-3.09 3.094.521c4.694.791.558 3.68-2.947 3.09z"/><path d="m526.275 256.241-3.094-.521 2.963-2.709 3.094.521zm11.405 2.123-6.188-1.042 3.935-2.748 6.188 1.042zm12.016 2.099-6.188-1.042 4.296-2.763 6.188 1.042zm12.377 2.084-6.188-1.042 4.296-2.763 6.188 1.042zm12.979 2.059-6.188-1.042 3.694-2.739 6.189 1.042zm12.618 2.074-6.189-1.042 3.454-2.729 6.189 1.042zm12.016 2.099-6.188-1.042 3.814-2.744 6.189 1.042zm10.15 1.909-3.094-.521 2.947-3.09 3.095.521c4.694.79.558 3.68-2.948 3.09z"/><path d="m518.498 263.751-3.095-.521 2.963-2.709 3.094.521zm11.404 2.123-6.188-1.042 3.935-2.748 6.188 1.042zm12.016 2.099-6.188-1.042 4.296-2.764 6.189 1.042zm12.378 2.083-6.189-1.041 4.296-2.764 6.189 1.042zm12.978 2.06-6.188-1.042 3.694-2.739 6.189 1.042zm12.618 2.074-6.188-1.042 3.453-2.729 6.189 1.042zm12.016 2.099-6.188-1.042 3.814-2.744 6.189 1.042zm10.151 1.909-3.095-.521 2.947-3.09 3.095.521c4.694.79.558 3.68-2.947 3.09z"/></g><path d="m436.459 343.027c14.678-1.973 31.506-10.142 39.654-34.912 1.663-5.056 4.671-13.605 8.36-21.722 1.842-4.053 3.927-8.162 6.181-11.734 2.151-3.41 4.896-7.052 8.269-9.462 3.765-2.69 8.999-1.819 11.69 1.946 2.691 3.766 1.819 9-1.946 11.69-.689.493-2.036 1.912-3.839 4.769-1.699 2.693-3.429 6.055-5.097 9.726-3.332 7.33-6.123 15.237-7.697 20.024-10.495 31.903-33.452 43.611-53.342 46.286-4.586.616-8.805-2.602-9.421-7.189-.617-4.587 2.601-8.805 7.188-9.422z" fill="#ffbd5a"/><path d="m842.654 133.521-113.062 26.899 1.315 5.529 113.062-26.899zm-83.984 9.603-31.414 7.474 1.315 5.528 31.414-7.473zm-26.74 27.117 113.061-26.898 1.315 5.528-113.061 26.899zm36.088 12.17-31.414 7.474 1.315 5.529 31.415-7.474zm-29.077 17.297 61.565-14.647 1.315 5.528-61.565 14.647zm36.089 12.17-31.414 7.473 1.315 5.529 31.414-7.474zm-29.077 17.296 61.563-14.647 1.315 5.529-61.563 14.647zm36.088 12.17-31.414 7.474 1.315 5.528 31.415-7.474zm-29.076 17.295 113.057-26.898 1.315 5.529-113.056 26.897zm115.393-17.075-113.056 26.897 1.316 5.529 113.055-26.897zm-557.576-105.305 32.125 3.278-.577 5.653-32.125-3.277zm107.651 21.132-108.675-11.088-.577 5.653 108.675 11.088zm-109.7-1.044 108.675 11.088-.577 5.654-108.675-11.088zm30.076 23.365-32.124-3.277-.577 5.653 32.124 3.278zm-33.149 6.767 75.335 7.686-.576 5.654-75.335-7.686zm30.076 23.367-32.124-3.278-.577 5.654 32.124 3.277zm-33.149 6.765 75.334 7.686-.577 5.654-75.334-7.687zm30.076 23.366-32.125-3.277-.577 5.653 32.125 3.278zm438.269 165.355c-5.748-.634-12.967-2.5-17.072-3.755-.996 1.466-2.391 4.648 0 5.644 1.899.791 2.946 4.361 3.407 7.084l-9.787 11.306c-2.14 1.941-3.132 1.354-4.089.787-.748-.443-1.475-.873-2.712-.078-2.346 1.509 4.371 10.928 9.413 16.735 2.698 1.324 7.568 3.106 9.755 1.647 1.147-.764 3.932-4.198 7.213-8.244l.001-.001c5.232-6.451 11.725-14.457 14.849-15.676 5.072-1.98 39.809-19.868 32.532-34.11-2.731-1.313-7.08-1.045-10.799 2.635-2.789 2.76-12.142 6.887-22.203 11.326l-.006.002-.009.004c-3.494 1.542-7.074 3.121-10.493 4.694zm-41.761 64.372c-4.575.009-10.415-.819-13.754-1.443-.653 1.241-1.468 3.866.499 4.438 1.564.454 2.703 3.168 3.306 5.268l-6.695 9.754c-1.511 1.716-2.343 1.342-3.146.981-.627-.282-1.236-.556-2.139.179-1.711 1.394 4.402 8.204 8.88 12.323 2.238.803 6.226 1.774 7.817.433.834-.702 2.72-3.649 4.942-7.12h.001c3.543-5.535 7.94-12.404 10.288-13.639.865-.455 2.858-1.689 5.342-3.448 2.675-2.234 5.384-4.318 7.659-6.067l.001-.001h.001l.212-.164c6.97-6.211 13.235-14.134 9.346-20.014-2.263-.792-5.659-.197-8.257 3.026-1.949 2.417-8.938 6.489-16.456 10.868-2.615 1.524-5.294 3.085-7.847 4.626zm-277.358-142.846c-3.648 4.527-8.816 7.955-14.755 10.393.071.086-4.075 0-4.075 0s-26.295-1.2-29.021 1.708l-4.958 8.675c-2.171 2.079-5.613 12.073-6.424 15.192-14.655 56.364 41.189 135.779 59.233 153.63 18.465-35.194 39.153-70.474 39.153-70.474s-.659-3.111-7.13-9.501c-1.667-1.647-3.506-3.243-5.32-4.818-6.463-5.611-9.822-18.759-9.822-18.759s-2.328-10.86-3.778-18.228c9.115.938 19.802-1.877 24.584-6.8.142-1.328-1.005-4.287-2.278-7.57-.914-2.357-1.892-4.88-2.504-7.085-1.171-4.222-10.97-18.447-15.81-23.429-.071.018-.143.036-.214.054 2.951-.729 5.781-1.677 8.442-2.863 2.211-4.249-25.323-20.125-25.323-20.125z" fill="#fff"/><path d="m447.666 351.302c2.918.283 5.997.506 9.138.311 7.288-.453 14.25-1.92 20.332-4.631 2.211-4.249-25.323-20.125-25.323-20.125-3.648 4.527-8.815 7.955-14.754 10.393 1.334 1.623 5.563 6.863 10.607 14.052z" fill="#000" fill-opacity=".25"/><path d="m623.68 180.45-6.48-1.023c-6.005-.948-3.701 10.035 7.186 11.336 1.265.151 2.878.383 4.742.674zm9.366 18.888-6.582-1.039c-6.004-.948-3.7 10.036 7.187 11.336 1.287.154 2.936.391 4.843.69zm9.366 18.887-6.684-1.055c-6.005-.948-3.701 10.035 7.187 11.336 1.31.156 2.994.4 4.945.706z" fill="#d1d6ea" fill-opacity=".9"/><path d="m535.312 209.124 39.771 7.158-2.544-6.27-40.118-6.718zm-6.602-13.314 41.016 7.381-2.545-6.27-41.354-6.925zm-6.042-12.185c12.641 2.329 25.257 4.826 25.257 4.826 11.379 1.796 6.081-10.295-1.53-11.497l-29.331-4.63z" fill="#d1d6ea" fill-opacity=".9"/></g><path d="m723.939 501.637c-1.731 1.458-6.295.181-8.361-.639.252 2.242.956 2.36 6.224 6.208 5.269 3.848 14.532-9.431 15.653-12.616 1.122-3.185 9.511-14.589 14.383-15.138 4.873-.548 15.451-17.922 15.239-22.437-.169-3.613-3.7-5.551-5.383-5.888 7.108 10.549-18.704 27.742-22.524 29.751-3.821 2.008-13.068 18.936-15.231 20.759z" fill="#c2bfbf"/><path clip-rule="evenodd" d="m715.916 472.697c1.564.454 2.703 3.169 3.306 5.27l-6.695 9.754c-1.511 1.716-2.343 1.342-3.146.981-.505-.227-.999-.449-1.644-.143l-4.471-1.784c2.912-4.67 5.592-11.819 5.541-17.244l6.162 2.495c.194.303.498.541.947.671z" fill="#ffbd5a" fill-rule="evenodd"/><path d="m580.84 141.336-49.635-8.32 20.512 45.281 48.861 8.611z" fill="#e8ecfa" opacity=".9"/><path d="m544.181 143.158 31.06 5.223 1.724 4.036-31.015-5.495z" fill="#cfd4e8" fill-opacity=".91"/><path d="m547.999 151.643 30.887 5.162 1.635 4.015-30.752-5.53z" fill="#cfd4e8" fill-opacity=".91"/><path d="m551.497 159.215 30.585 5.138 1.737 4.068-30.642-5.546z" fill="#cfd4e8" fill-opacity=".91"/><path d="m555.312 167.646 30.486 5.191 1.807 3.929-30.544-5.305z" fill="#cfd4e8" fill-opacity=".91"/><path clip-rule="evenodd" d="m747.481 425.611 9.786-11.305c-.272-1.608-.748-3.512-1.484-4.964l-13.396-2.356c-.99 5.775-3.707 12.823-6.643 19.366l4.491.658c.062-.303.207-.537.444-.689 1.237-.796 1.964-.366 2.712.077.958.567 1.949 1.154 4.09-.787z" fill="#ffbd5a" fill-rule="evenodd"/><path d="m647.377 209.133c-.16-.167-.424-.172-.591-.012-.166.16-.171.424-.011.59zm2.381 3.08.227.35.424-.275-.35-.364zm-2.605 1.192c-.193.126-.248.384-.123.578.126.193.384.248.578.123zm-.378-3.694 2.682 2.791.602-.578-2.682-2.791zm2.756 2.152-2.378 1.542.455.701 2.377-1.543z" fill="#e8ecfa"/><path d="m639.7 208.466c.145-.179.408-.207.587-.062s.207.408.062.587zm-1.404 2.397-.247.336-.352-.259.275-.34zm2.48 1.307c.186.137.226.398.089.584s-.398.225-.584.089zm-.427-3.179-1.728 2.134-.649-.525 1.728-2.134zm-1.805 1.536 2.232 1.643-.495.673-2.232-1.644z" fill="#e8ecfa"/><path clip-rule="evenodd" d="m542.413 145.762 31.061 5.223 1.723 4.036-31.014-5.496zm-1.808 34.613-53.319-8.416c-6.004-.948-3.7 10.035 7.187 11.336s47.662 8.577 47.662 8.577c11.379 1.796 6.081-10.295-1.53-11.497zm121.043 10.263-53.318-8.416c-6.005-.948-3.701 10.035 7.186 11.336 10.888 1.301 47.663 8.577 47.663 8.577 11.378 1.796 6.08-10.295-1.531-11.497zm-44.054 10.455 53.319 8.416c7.611 1.202 12.909 13.293 1.53 11.497 0 0-36.775-7.277-47.662-8.578-10.887-1.3-13.191-12.283-7.187-11.335zm62.583 27.288-53.319-8.416c-6.004-.948-3.7 10.035 7.187 11.336 10.887 1.3 47.662 8.577 47.662 8.577 11.379 1.796 6.081-10.295-1.53-11.497zm-167.015-36.116 48.229 8.077 2.545 6.27-47.663-8.577zm53.588 21.168-48.23-8.077 3.112 5.77 47.662 8.577zm10.369-54.025-30.888-5.163 1.771 3.648 30.752 5.53zm-27.389 2.41 30.584 5.138 1.738 4.068-30.642-5.546zm34.301 13.622-30.487-5.191 1.75 3.814 30.543 5.306zm-132.167 340.989c14.057 8.47 33.635 15.769 46.93 10.591 6.471-2.52 14.454-8.374 22.942-16.031 5.804-3.336 11.084-6.904 15.236-9.71l.005-.003.005-.004c1.602-1.082 3.035-2.05 4.265-2.848 3.117-2.02 13.572-12.28 24.38-22.885 13.251-13.003 27.03-26.524 28.461-26.015 2.334.828 4.578 1.943 7.233 3.261v.001h.001c6.916 3.435 16.62 8.256 37.948 13.01 22.939 14.936 41.956 22.781 58.679 25.783 4.589.823 15.648-22.405 8.535-28.273-6.126-5.054-67.217-31.998-94.311-43.018 11.379.481 27.747 2.298 45.692 4.289l.033.004 1.846.204 2.198.244c9.045 1.001 18.493 2.61 27.482 4.141 22.275 3.793 41.732 7.106 45.255-.489 4.946-10.659 9.785-23.315 7.536-29.732-6.105-8.83-70.826-11.753-111.647-12.157-4.523-.045-9.4-.42-14.428-.807-15.046-1.157-31.456-2.419-43.859 4.743-.501.289-.994.574-1.478.853l-1.615.932-.003.001-.031.018-.01.006-.026.015c-27.117 15.639-53.123 33.531-78.852 51.824.588 1.073.7 1.603.7 1.603v.001s-22.877 36.122-39.102 70.448zm327.869-122.332c-.249-.937.329-1.788 1.292-1.902.963-.113 1.945.554 2.195 1.491l2.914 10.952c.25.937-.329 1.788-1.292 1.902-.963.113-1.945-.555-2.195-1.491zm-10.206 4.17c-.249-.937.329-1.788 1.292-1.902.963-.113 1.946.554 2.195 1.491l2.914 10.952c.25.937-.329 1.788-1.292 1.902-.962.113-1.945-.554-2.194-1.491zm-368.463-148.379c-8.994 1.212-36.448 23.063-28.189 39.899-2.686 3.678-4.358 8.925-.807 14.656 3.365 5.432 7.676 8.268 11.258 10.625 3.565 2.346 6.408 4.217 6.878 7.699.753 5.586.957 14.351 0 14.892 4.041.177 28.749-5.368 34.1-13.129 10.511-15.243 4.278-20.515-.19-24.295-.653-.553-1.268-1.073-1.788-1.588 4.001.554 7.607.845 10.172-.061 3.045-1.075 1.827-5.199.647-9.193-1.198-4.056-2.357-7.978 1.031-8.435 7.661-1.032 8.059-3.58 8.989-9.537v-.003l.002-.01.001-.008c.043-.274.086-.554.132-.843.344-2.166.453-4.715.564-7.31.226-5.294.46-10.779 2.717-13.6-3.836.696-12.083 2.593-14.382 4.618 1.551-3.067 7.611-9.6 13.279-12.798-8.785-.245-27.514 4.589-34.287 10.003.271-.33.606-.715.983-1.15 2.72-3.132 7.654-8.812 6.854-14.744-3.564 4.994-9.783 13.209-17.964 14.312zm90.493 137.686c.031-.007.031-.007.031-.007v-.001l-.001-.003-.002-.01-.009-.04-.019-.091-.014-.062c-.03-.135-.075-.333-.135-.59-.122-.512-.307-1.255-.561-2.182-.51-1.855-1.299-4.447-2.419-7.401-2.238-5.901-5.805-13.271-11.117-19.079l-.562.514c5.219 5.707 8.744 12.976 10.966 18.836 1.11 2.927 1.892 5.495 2.397 7.331.252.918.435 1.653.554 2.157.06.252.104.447.133.578l.004.015c-1.675 1.904-4.764 3.483-8.762 4.769-2.713.871-5.815 1.599-9.124 2.203-.38-1.596-1.183-3.644-2.245-5.934-1.278-2.756-2.948-5.9-4.758-9.092-3.619-6.385-7.807-12.984-10.56-17.113l-.634.422c2.745 4.118 6.923 10.702 10.532 17.067 1.804 3.183 3.463 6.306 4.729 9.037 1.053 2.27 1.822 4.245 2.185 5.747-1.433.251-2.901.48-4.39.687-10.44 1.455-21.859 1.869-29.186 1.804l-.007.762c7.353.065 18.812-.35 29.298-1.811 1.503-.21 2.988-.441 4.438-.695.003.023.007.046.011.069l.008.057.754-.11c-.007-.049-.015-.099-.023-.15 3.327-.608 6.458-1.342 9.205-2.225 4.122-1.325 7.442-3.004 9.233-5.145l.118-.141-.037-.18zm-14.431-47.696c1.311 1.253 2.458 2.391 3.372 3.314.518.523.96.978 1.315 1.346.222-.135.443-.272.661-.412-.374-.389-.858-.887-1.434-1.469-.923-.933-2.082-2.082-3.406-3.348-.169.191-.338.381-.508.569zm-12.357-11.34c-1.803-1.241-3.583-2.315-5.255-3.104l-.325.689c1.605.757 3.319 1.788 5.062 2.983.173-.187.346-.376.518-.568zm270.329 131.552c-.279-.714.101-1.435.848-1.609.747-.175 1.579.263 1.857.978l3.26 8.353c.279.714-.1 1.435-.847 1.609-.747.175-1.579-.263-1.858-.978zm-7.655 4.182c-.279-.715.101-1.435.848-1.61.747-.174 1.578.264 1.857.978l3.26 8.353c.279.715-.1 1.435-.847 1.61-.747.174-1.579-.264-1.858-.978z" fill="#4299e1" fill-rule="evenodd"/><path clip-rule="evenodd" d="m475.841 488.053c7.762 2.149 17.304 2.712 25.427-1.011 5.336-2.445 12.259-8.691 19.93-16.643 6.065-6.287 12.63-13.676 19.287-21.168h.001l.003-.005c1.777-1.999 3.56-4.006 5.342-6.001 8.466-9.48 16.906-18.699 24.513-25.657 3.803-3.479 7.39-6.384 10.659-8.472 3.276-2.092 6.2-3.341 8.684-3.552 8.206-.699 33.066.365 61.212 2.009 28.128 1.643 59.493 3.863 80.678 5.471.21.016.393-.142.409-.351.016-.21-.141-.393-.351-.409-21.188-1.607-52.558-3.828-80.692-5.472-28.115-1.642-53.045-2.712-61.32-2.007-2.667.227-5.715 1.553-9.03 3.669-3.321 2.121-6.944 5.058-10.763 8.552-7.639 6.987-16.103 16.233-24.567 25.711-1.787 2.001-3.573 4.011-5.351 6.013l-.002.002c-6.656 7.491-13.207 14.864-19.26 21.138-7.684 7.966-14.514 14.103-19.699 16.48-7.851 3.598-17.123 3.096-24.754 1.011-.118.231-.237.462-.356.692z" fill="#f1f7ff" fill-rule="evenodd"/><path clip-rule="evenodd" d="m486.514 461.819c2.818.993 6.38 2.657 9.56 4.994 3.961 2.91 7.276 6.822 7.899 11.728.027.209.218.357.426.33.209-.026.357-.217.33-.426-.66-5.201-4.164-9.277-8.204-12.246-3.256-2.392-6.895-4.092-9.779-5.105-.076.24-.154.482-.232.725z" fill="#f1f7ff" fill-rule="evenodd"/><path clip-rule="evenodd" d="m521.736 510.988c5.805-3.336 11.085-6.904 15.236-9.709 1.605-1.085 3.042-2.056 4.275-2.855 3.117-2.021 13.573-12.28 24.38-22.885 13.251-13.003 27.03-26.524 28.462-26.016 2.323.825 4.527 2.077 7.132 3.557 6.822 3.875 16.392 9.311 38.05 12.716 22.938 14.936 41.955 22.781 58.678 25.783 4.589.823 15.648-22.405 8.536-28.273-6.127-5.055-67.217-31.998-94.311-43.018-6.704-.283-11.677-.104-14.221.777-5.883 2.036-11.586 11.174-14.549 15.922l-.001.002-.002.002-.001.002c-.655 1.049-1.176 1.884-1.535 2.379-10.315 16.742-37.083 50.826-60.129 71.616z" fill="#000" fill-opacity=".4" fill-rule="evenodd"/><path clip-rule="evenodd" d="m735.946 458.482c-.747.174-1.126.895-.848 1.609l3.26 8.353c.279.715 1.111 1.153 1.858.978.747-.174 1.126-.895.848-1.609l-3.261-8.353c-.278-.715-1.11-1.153-1.857-.978zm-7.655 4.181c-.747.175-1.127.895-.848 1.61l3.26 8.353c.279.714 1.111 1.152 1.858.978.747-.175 1.126-.895.847-1.61l-3.26-8.353c-.279-.714-1.11-1.152-1.857-.978z" fill="#000" fill-opacity=".36" fill-rule="evenodd"/><path d="m759.848 444.703c-2.38 1.586-7.933-.661-10.411-1.983 0 2.85.867 3.098 6.94 8.676 6.074 5.577 19.584-9.792 21.443-13.634s14.006-16.981 20.203-16.981 21.938-20.327 22.31-26.028c.298-4.561-3.863-7.494-5.929-8.155 7.437 14.253-27.412 32.2-32.494 34.183s-19.087 21.939-22.062 23.922z" fill="#fff"/><g clip-rule="evenodd" fill-rule="evenodd"><path d="m842.655 133.521-113.062 26.899 1.315 5.529 113.062-26.899zm-83.984 9.603-31.414 7.474 1.315 5.528 31.414-7.473zm-26.741 27.117 113.062-26.898 1.315 5.528-113.061 26.899zm36.089 12.17-31.414 7.474 1.315 5.529 31.414-7.474zm-29.077 17.297 61.565-14.647 1.315 5.528-61.565 14.647zm36.089 12.17-31.415 7.473 1.316 5.529 31.414-7.474zm-29.078 17.296 61.564-14.647 1.315 5.529-61.563 14.647zm36.089 12.17-31.414 7.474 1.315 5.528 31.414-7.474zm-29.076 17.295 113.056-26.898 1.316 5.529-113.057 26.897zm115.393-17.075-113.056 26.897 1.315 5.529 113.056-26.897zm-557.576-105.305 32.124 3.278-.577 5.654-32.124-3.278zm107.65 21.132-108.675-11.088-.576 5.654 108.674 11.087zm-109.699-1.044 108.674 11.088-.577 5.654-108.674-11.088zm30.075 23.365-32.124-3.277-.577 5.653 32.125 3.278zm-33.148 6.767 75.335 7.687-.577 5.653-75.335-7.686zm30.075 23.367-32.124-3.278-.577 5.654 32.125 3.277zm-33.149 6.765 75.334 7.686-.577 5.654-75.333-7.687zm30.076 23.366-32.124-3.277-.577 5.653 32.124 3.278z" fill="#fff" fill-opacity=".15"/><path d="m427.288 306.254s1.68 7.52.847 10.949c-.74 3.042-1.975 4.843-3.959 6.862-3.923 3.992-7.239 4.441-12.261 7.147-2.388 1.287-8.056 3.512-8.056 3.512s-.266 4.191.82 7.718c15.291 6.741 31.78-1.399 31.78-1.399s-5.362-14.003-5.362-18.266c4.667-1.454 18.863-5.51 19.497-6.068 3.586-3.153 3.205-4.01 2.42-5.778-1.884-4.241-.73-8.428-3.013-13.002 1.596-1.01 1.695-4.207 1.695-4.207s-3.415-4.36-6.629-6.847c-1.435-2.713-3.027-5.399-4.725-7.971-1.24 1.001-3.134 1.647-6.166 2.056-3.388.457-2.229 4.379-1.031 8.435 1.18 3.994 2.398 8.118-.647 9.193-.888.313-1.901.483-3.012.549-1.576-.583-5.87-7.831-5.87-7.831s-1.005-1.259-2.937 0c-5.441 3.545 5.217 10.892 6.609 14.948z" fill="#ffbd5a"/><path d="m541.831 240.184-3.095-.521 2.963-2.709 3.094.521zm11.404 2.124-6.188-1.042 3.935-2.749 6.188 1.042zm12.016 2.098-6.188-1.042 4.296-2.763 6.189 1.042zm12.378 2.084-6.189-1.042 4.296-2.763 6.189 1.042zm12.978 2.059-6.188-1.042 3.694-2.738 6.189 1.042zm12.618 2.075-6.188-1.042 3.453-2.729 6.189 1.042zm12.016 2.098-6.188-1.042 3.814-2.743 6.189 1.042zm10.151 1.909-3.095-.521 2.947-3.089 3.095.52c4.694.791.558 3.681-2.947 3.09z" fill="#2e69ff"/><path d="m534.053 247.694-3.094-.521 2.963-2.709 3.094.521zm11.405 2.123-6.188-1.042 3.935-2.748 6.188 1.042zm12.016 2.099-6.188-1.042 4.296-2.763 6.188 1.042zm12.377 2.084-6.188-1.042 4.296-2.763 6.188 1.042zm12.979 2.059-6.188-1.042 3.694-2.738 6.188 1.042zm12.618 2.074-6.189-1.042 3.454-2.729 6.188 1.042zm12.016 2.099-6.189-1.042 3.815-2.744 6.189 1.042zm10.15 1.909-3.094-.521 2.947-3.09 3.094.521c4.695.791.559 3.68-2.947 3.09z" fill="#2e69ff"/><path d="m526.275 255.202-3.094-.521 2.962-2.709 3.095.521zm11.405 2.123-6.189-1.042 3.935-2.748 6.189 1.042zm12.016 2.099-6.189-1.042 4.296-2.763 6.189 1.042zm12.377 2.084-6.189-1.042 4.296-2.763 6.189 1.041zm12.979 2.059-6.189-1.042 3.694-2.739 6.189 1.042zm12.618 2.074-6.189-1.042 3.454-2.729 6.188 1.042zm12.016 2.099-6.189-1.042 3.815-2.744 6.188 1.042zm10.15 1.909-3.094-.521 2.947-3.09 3.094.521c4.694.79.559 3.68-2.947 3.09z" fill="#2e69ff"/><path d="m518.497 262.711-3.094-.52 2.963-2.709 3.094.521zm11.405 2.124-6.189-1.042 3.935-2.748 6.189 1.041zm12.016 2.099-6.189-1.042 4.296-2.764 6.189 1.042zm12.377 2.083-6.189-1.042 4.297-2.763 6.188 1.042zm12.979 2.06-6.189-1.042 3.695-2.739 6.188 1.042zm12.618 2.074-6.189-1.042 3.454-2.729 6.188 1.042zm12.016 2.098-6.189-1.041 3.815-2.744 6.188 1.042zm10.15 1.91-3.094-.521 2.947-3.09 3.094.521c4.694.79.559 3.68-2.947 3.09z" fill="#2e69ff"/></g><path d="m598.947 275.91c-2.678-8.52-7.769-8.248-7.769-8.248l-12.563.684s-8.845 6.428-23.716 17.89c1.068 2.268 1.647 6.422 6.764 11.01 1.283 1.151 8.521 7.436 24.47-4.961 16.247.559 16.681-4.076 12.814-16.375z" fill="#ffbd5a"/><path d="m533.445 256.642c-2.041-6.492-5.92-6.285-5.92-6.285l-9.573.521s-10.291 3.506-21.36 16.036c.813 1.728 4.543 2.49 8.442 5.987.978.877 4.816 1.077 16.969-8.369 12.381.425 14.389 1.483 11.442-7.89z" fill="#ffbd5a"/><path d="m518.634 277.62c-3.588 1.787-10.818-.095-13.985-1.259l1.368-8.106 10.868-4.612c.004 1.805.431 5.573 2.099 6.198 2.086.782 5.139-.199 7.134 1.324s-2.998 4.221-7.484 6.455z" fill="#ffbd5a"/></svg>