<?xml version="1.0"?>
<svg xmlns="http://www.w3.org/2000/svg" id="Line" viewBox="0 0 64 64" width="512" height="512"><path d="M60,21H16a3,3,0,0,0-3,3V48a3,3,0,0,0,3,3H60a3,3,0,0,0,3-3V24A3,3,0,0,0,60,21ZM38,46a2,2,0,1,1,2-2A2,2,0,0,1,38,46Z" style="fill:#c4a2fc"/><path d="M42.781,53H33.219l-1.568,6.272A3,3,0,0,0,34.562,63h6.876a3,3,0,0,0,2.911-3.728Z" style="fill:#c4a2fc"/><path d="M37,19A18,18,0,1,0,8.534,33.643,7,7,0,0,0,7,38V48a3,3,0,0,0,3,3H28a3,3,0,0,0,3-3V38a7,7,0,0,0-1.548-4.374A17.976,17.976,0,0,0,37,19ZM19,3A15.884,15.884,0,0,1,34.23,14.09c-5.61.58-7.27-2.41-7.34-2.54a1,1,0,0,0-1.86.21,6.626,6.626,0,0,0,.53,4.91c-9.09-1.69-11.52-7.75-11.62-8.02a1,1,0,0,0-1.86-.04c-1.98,4.62-6.42,6.43-8.73,7.07A16.013,16.013,0,0,1,19,3ZM29,38V48a1,1,0,0,1-1,1H25V44a1,1,0,0,0-2,0v5H15V44a1,1,0,0,0-2,0v5H10a1,1,0,0,1-1-1V38a5.008,5.008,0,0,1,1.226-3.273A17.985,17.985,0,0,0,27.76,34.71,5.009,5.009,0,0,1,29,38ZM19,35A15.971,15.971,0,0,1,3,19c0-.4.01-.79.04-1.18,2.07-.45,7.09-1.99,9.98-6.68C17.951,18.758,27.9,18.96,28,19a1,1,0,0,0,.55-1.83,4.522,4.522,0,0,1-1.68-2.77c1.45,1.08,3.9,2.11,7.84,1.65A14.608,14.608,0,0,1,35,19,16.021,16.021,0,0,1,19,35Z" style="fill:#151a6a"/></svg>
